# xmcd
#
# Track frame offsets:
#	150
#	12900
#	30825
#	43350
#	58425
#	72975
#	86950
#	98250
#	112275
#	124650
#	136500
#	152875
#	163975
#	180975
#	193825
#	206550
#	216825
#	229350
#
# Disc length: 3288 seconds
#
# Revision: 0
# Processed by: cddbd v1.5.2PL0 Copyright (c) Steve Scherf et al.
# Submitted via: EasyCDDAExtractor 8.2.2.1
#
DISCID=060cd612
DTITLE=Various Artist - Va--For The Good Times CD2
DYEAR=1900
DGENRE=Oldies
TTITLE0=Vikki Carr - For Once In My Life
TTITLE1=Frank Sinatra - Night And Day
TTITLE2=Al Martino - Spanish Eyes
TTITLE3=Peggy Lee - Fever
TTITLE4=Lous Amstrong - We Have All The Time In The World
TTITLE5=Debbie Reynolds - Tammy
TTITLE6=Johnny Ray - Yes Tonight Josephine
TTITLE7=Grace Kelly and Bing Crosby - True Love
TTITLE8=Dean Martin - Return To Me
TTITLE9=Jo Stafford - Make Love To Me
TTITLE10=Perry Como - For The Good Times
TTITLE11=Litte Peggy March - I Will Follow Him
TTITLE12=Sammy Davis Jr. - Mr. Bojangles
TTITLE13=Tony Bennett - I Left My Heart In San Francisco
TTITLE14=Le Paul and Mary Ford - Vaya Con Dios
TTITLE15=Lous Prima - Whistle Stop
TTITLE16=Nat King Cole - Ramblin' Rose
TTITLE17=Ray Charles - Ruby
EXTD=
EXTT0=
EXTT1=
EXTT2=
EXTT3=
EXTT4=
EXTT5=
EXTT6=
EXTT7=
EXTT8=
EXTT9=
EXTT10=
EXTT11=
EXTT12=
EXTT13=
EXTT14=
EXTT15=
EXTT16=
EXTT17=
PLAYORDER=
